<mxfile host="app.diagrams.net" modified="2024-04-23T13:57:48.913Z" agent="Mozilla/5.0 (X11; Linux x86_64) AppleWebKit/537.36 (KHTML, like Gecko) Chrome/121.0.0.0 Safari/537.36" version="24.2.8" etag="eLZvanTXtVNFpQ8S434E" type="github">
  <diagram name="Page-1" id="oxksLwuxKGkKtpbBh7XY">
    <mxGraphModel>
      <root>
        <mxCell id="0" />
        <mxCell id="1" parent="0" />
      </root>
    </mxGraphModel>
  </diagram>
</mxfile>
